<svg width="976" height="699" viewBox="0 0 976 699" fill="none" xmlns="http://www.w3.org/2000/svg">
<path d="M677.777 18.7853C700.199 -14.7041 832.261 1.15645 815.05 30.6746C805.905 46.3595 767.107 3.11568 712.608 61.9828C687.34 89.2749 725.135 201.391 692.72 262.31C667.002 310.642 619.999 296.152 619.999 321.571C619.999 346.989 682.623 338.853 715.66 308.264C737.086 288.425 821.594 260.297 876.093 308.264C930.593 356.231 996.566 290.225 969.521 331.632C942.476 373.04 866.259 350.491 821.594 331.632C776.929 312.774 726.404 370.133 668.126 378.969C637.104 383.673 588.857 348.814 561.402 370.133C533.947 391.452 632.693 395.551 616.311 510.344C614.501 523.03 597.462 542.732 583.12 599.308C568.778 655.885 645.405 698.522 619.999 698.932C594.594 699.342 567.139 657.934 551.977 634.566C536.816 611.197 551.568 558.311 567.139 526.333C582.71 494.355 535.586 404.571 502.395 395.551C469.204 386.532 487.234 539.862 426.587 566.1C365.941 592.339 366.761 522.233 267.596 584.139C168.431 646.045 259.401 710.411 222.931 694.012C186.461 677.613 183.183 607.508 211.048 575.94C238.912 544.372 322.837 475.808 381.922 510.344C447.561 548.71 449.944 431.629 429.866 416.87C409.787 402.111 397.384 491.024 289.724 458.687C248.952 446.441 191.379 369.723 130.323 351.274C69.2672 332.825 -1.21344 438.599 0.0158691 395.551C1.24518 352.504 73.3649 318.476 123.767 309.047C174.169 299.617 245.468 376.692 305.295 395.551C365.122 414.41 441.749 378.332 416.343 338.565C390.937 298.797 361.434 363.573 283.987 288.138C206.54 212.703 244.239 122.919 270.874 89.7108C297.509 56.5029 392.576 45.4336 488.463 104.47C584.349 163.506 528.211 268.869 609.345 262.31C690.48 255.75 630.291 89.7109 677.777 18.7853Z" fill="#191847"/>
</svg>
