<svg width="168" height="30" viewBox="0 0 168 30" fill="none" xmlns="http://www.w3.org/2000/svg">
<path fill-rule="evenodd" clip-rule="evenodd" d="M26.6397 28.6289C26.7364 28.91 26.8274 29.2023 26.9238 29.5375C27.0299 29.9063 27.3932 30.1204 27.7163 29.9279C28.1742 29.6551 28.7731 29.1632 29.333 28.3553C29.5245 28.0789 29.6889 27.8246 29.8295 27.5934C30.2936 26.8296 29.7539 26.049 28.891 25.9037C28.301 25.8044 27.8366 25.6444 27.9499 25.3999C31.3966 17.9679 26.6251 5.87229 18.5722 1.68753C14.3901 -0.485715 8.59621 -1.17284 4.15125 3.4086C-8.57432 16.5249 10.7263 32.8294 24.811 27.8255C25.5414 27.566 26.3813 27.8784 26.6397 28.6289ZM11.6551 3.03326C13.1538 3.45028 15.1873 4.09031 16.3627 4.5907C17.626 5.12856 19.1148 6.23219 20.1222 6.97901C20.7428 7.43912 21.1808 7.76379 21.2708 7.73728C21.507 7.66774 21.0516 3.72148 16.9867 2.59149C14.22 1.82236 12.555 1.77004 11.5185 2.0782C10.989 2.23561 11.1231 2.88523 11.6551 3.03326Z" fill="#C5D30A"/>
<path opacity="0.8" d="M16.3626 4.59073C15.1873 4.09035 13.1538 3.45031 11.6551 3.03329C11.1231 2.88526 10.989 2.23564 11.5185 2.07823C12.555 1.77007 14.22 1.82239 16.9867 2.59153C21.0515 3.72151 21.5069 7.66778 21.2708 7.73732C21.0347 7.80685 18.4044 5.45996 16.3626 4.59073Z" fill="white"/>
<path d="M41.476 21H43.87V15.798H45.4L48.766 21H51.358L47.74 15.438C49.342 15.024 50.602 13.998 50.602 11.982V11.91C50.602 9.282 48.622 8.13 45.796 8.13H41.476V21ZM43.87 14.088V9.984H45.796C47.326 9.984 48.244 10.488 48.244 11.964V12.036C48.244 13.404 47.398 14.088 45.796 14.088H43.87ZM56.5173 21.18C58.0473 21.18 59.0373 20.442 59.5053 19.524V21H61.6833V11.586H59.5053V17.184C59.5053 18.678 58.4793 19.434 57.3093 19.434C56.0493 19.434 55.4553 18.786 55.4553 17.364V11.586H53.2772V17.616C53.2772 20.118 54.6633 21.18 56.5173 21.18ZM64.8057 21H66.9837V15.456C66.9837 13.962 67.9737 13.206 69.1977 13.206C70.4937 13.206 71.0697 13.854 71.0697 15.276V21H73.2477V15.078C73.2477 12.486 71.9157 11.388 70.0257 11.388C68.4777 11.388 67.4337 12.162 66.9837 13.08V11.586H64.8057V21ZM76.3509 21H78.5289V11.586H76.3509V21ZM77.4129 10.038C78.1329 10.038 78.7089 9.498 78.7089 8.796C78.7089 8.076 78.1329 7.536 77.4129 7.536C76.6929 7.536 76.1169 8.076 76.1169 8.796C76.1169 9.498 76.6929 10.038 77.4129 10.038ZM92.5106 21.18C96.1466 21.18 98.3786 19.02 98.3786 15.456V14.268H92.7806V16.068H96.0206C95.9486 17.85 94.9586 19.308 92.5466 19.308C89.8466 19.308 88.5686 17.418 88.5686 14.664V14.52C88.5686 11.694 90.0266 9.822 92.5466 9.822C94.2206 9.822 95.3726 10.56 95.6606 12.27H98.0546C97.7126 9.192 95.2646 7.932 92.5106 7.932C88.7486 7.932 86.0846 10.668 86.0846 14.502V14.646C86.0846 18.444 88.3886 21.18 92.5106 21.18ZM105.262 19.488C103.606 19.488 102.652 18.282 102.652 16.356V16.212C102.652 14.268 103.642 13.098 105.262 13.098C106.882 13.098 107.854 14.286 107.854 16.23V16.356C107.854 18.282 106.882 19.488 105.262 19.488ZM105.244 21.18C108.016 21.18 110.086 19.272 110.086 16.338V16.194C110.086 13.314 108.016 11.388 105.262 11.388C102.49 11.388 100.42 13.332 100.42 16.248V16.392C100.42 19.254 102.472 21.18 105.244 21.18ZM115.816 21.18C118.228 21.18 119.578 20.082 119.578 18.174C119.578 16.176 118.264 15.636 116.05 15.294C114.556 15.042 114.106 14.772 114.106 14.088C114.106 13.422 114.664 12.972 115.6 12.972C116.608 12.972 117.094 13.368 117.274 14.232H119.29C119.056 12.108 117.526 11.388 115.6 11.388C113.836 11.388 112.072 12.324 112.072 14.214C112.072 15.978 112.99 16.68 115.474 17.076C116.86 17.31 117.49 17.598 117.49 18.372C117.49 19.164 116.968 19.578 115.798 19.578C114.52 19.578 114.034 19.02 113.926 18.066H111.874C111.964 20.064 113.386 21.18 115.816 21.18ZM123.796 21H126.028L127.936 14.664L129.682 21H131.896L134.848 11.586H132.724L130.762 18.39L128.926 11.586H127.108L125.11 18.39L123.238 11.586H120.916L123.796 21ZM139.255 21.18C140.695 21.18 141.523 20.658 142.135 19.848V21H144.277V14.826C144.277 12.252 142.621 11.388 140.515 11.388C138.409 11.388 136.663 12.306 136.483 14.502H138.589C138.697 13.566 139.255 13.026 140.389 13.026C141.667 13.026 142.099 13.656 142.099 14.916V15.402H140.929C138.229 15.402 136.105 16.194 136.105 18.39C136.105 20.352 137.527 21.18 139.255 21.18ZM139.777 19.614C138.697 19.614 138.265 19.092 138.265 18.3C138.265 17.148 139.327 16.77 140.983 16.77H142.099V17.706C142.099 18.912 141.109 19.614 139.777 19.614ZM147.313 21H149.491V15.366C149.491 13.926 150.481 13.206 151.561 13.206C152.623 13.206 153.235 13.8 153.235 15.186V21H155.413V15.366C155.413 13.926 156.403 13.206 157.483 13.206C158.563 13.206 159.157 13.8 159.157 15.186V21H161.335V15.042C161.335 12.45 159.931 11.388 158.203 11.388C157.033 11.388 155.737 11.91 155.017 13.08C154.549 11.91 153.577 11.388 152.353 11.388C150.967 11.388 149.941 12.144 149.491 13.026V11.586H147.313V21ZM164.431 21H166.609V11.586H164.431V21ZM165.493 10.038C166.213 10.038 166.789 9.498 166.789 8.796C166.789 8.076 166.213 7.536 165.493 7.536C164.773 7.536 164.197 8.076 164.197 8.796C164.197 9.498 164.773 10.038 165.493 10.038Z" fill="white"/>
</svg>
